<?xml version="1.0" encoding="UTF-8" standalone="no"?>
<svg
   version="1.1"
   width="54.000446"
   height="47.234421"
   class="svg_pane"
   data-attrTriangle="{&quot;fill&quot;:&quot;none&quot;,&quot;stroke&quot;:&quot;black&quot;,&quot;stroke-width&quot;:&quot;4&quot;,&quot;stroke-linecap&quot;:&quot;round&quot;,&quot;stroke-linejoin&quot;:&quot;round&quot;}"
   data-attrPattern="{&quot;fill&quot;:&quot;none&quot;,&quot;stroke&quot;:&quot;black&quot;,&quot;stroke-width&quot;:&quot;4&quot;,&quot;stroke-linecap&quot;:&quot;round&quot;,&quot;stroke-linejoin&quot;:&quot;round&quot;}"
   id="svg3"
   xmlns="http://www.w3.org/2000/svg"
   xmlns:svg="http://www.w3.org/2000/svg">
  <defs
     id="defs3" />
  <path
     id="line3"
     style="color:#000000;fill:#ffffff;fill-opacity:1;stroke-linecap:round;stroke-linejoin:round;-inkscape-stroke:none"
     d="m 33.000183,8.85938 a 2,2 0 0 0 -2.73242,0.73243 l -20,34.64062 a 2,2 0 0 0 0.73242,2.73242 2,2 0 0 0 2.73242,-0.73047 l 20,-34.64257 a 2,2 0 0 0 -0.73242,-2.73243 z m -12,0 a 2,2 0 0 0 -0.73242,2.73243 l 20,34.64257 a 2,2 0 0 0 2.73242,0.73047 2,2 0 0 0 0.73242,-2.73242 l -20,-34.64062 A 2,2 0 0 0 21.000183,8.85938 Z M 7.0001828,34.57227 a 2,2 0 0 0 -2,2 2,2 0 0 0 2,2 H 47.000183 a 2,2 0 0 0 2,-2 2,2 0 0 0 -2,-2 z M 26.482603,1e-5 a 2,2 0 0 0 -0.21289,0.16406 2,2 0 0 0 -0.26953,0.0352 2,2 0 0 0 -0.0566,0.21484 2,2 0 0 0 -0.67578,0.51758 L 0.26780282,44.23442 a 2.0002,2.0002 0 0 0 1.73241998,3 H 52.000223 a 2.0002,2.0002 0 0 0 1.73242,-3 l -25,-43.30273 A 2,2 0 0 0 28.670143,0.88289 2,2 0 0 0 28.000223,0.1993 2,2 0 0 0 27.730693,0.1641 2,2 0 0 0 27.000223,0.0684 2,2 0 0 0 26.482643,0 Z m 0.51758,5.93164 21.53516,37.30273 H 5.4650228 Z" />
</svg>
