<?xml version="1.0" encoding="UTF-8" standalone="no"?>
<svg
   version="1.1"
   width="54.000446"
   height="47.302811"
   class="svg_pane"
   data-attrTriangle="{&quot;fill&quot;:&quot;none&quot;,&quot;stroke&quot;:&quot;black&quot;,&quot;stroke-width&quot;:&quot;4&quot;,&quot;stroke-linecap&quot;:&quot;round&quot;,&quot;stroke-linejoin&quot;:&quot;round&quot;}"
   data-attrPattern="{&quot;fill&quot;:&quot;none&quot;,&quot;stroke&quot;:&quot;black&quot;,&quot;stroke-width&quot;:&quot;4&quot;,&quot;stroke-linecap&quot;:&quot;round&quot;,&quot;stroke-linejoin&quot;:&quot;round&quot;}"
   id="svg3"
   xmlns="http://www.w3.org/2000/svg"
   xmlns:svg="http://www.w3.org/2000/svg">
  <defs
     id="defs3" />
  <path
     id="polyline3"
     style="color:#000000;fill:#ffffff;stroke-linecap:round;stroke-linejoin:round;-inkscape-stroke:none"
     d="m 26.533383,19.10937 a 2,2 0 0 0 -0.25976,0.1875 2,2 0 0 0 -0.31836,0.0508 l -8.25,5.05078 a 2.0002,2.0002 0 0 0 -0.95508,1.65429 l -0.25,9.67188 a 2.0002,2.0002 0 0 0 1.04492,1.80859 l 8.5,4.61914 a 2.0002,2.0002 0 0 0 1.91016,0 l 8.5,-4.61914 a 2.0002,2.0002 0 0 0 1.04492,-1.8086 l -0.25,-9.67188 a 2.0002,2.0002 0 0 0 -0.95508,-1.65429 l -8.25,-5.05078 a 2,2 0 0 0 -0.31836,-0.0508 2,2 0 0 0 -0.72656,-0.11328 2,2 0 0 0 -0.4668,-0.0742 z m 0.4668,4.28907 6.2793,3.84375 0.18945,7.36132 -6.46875,3.51368 -6.46875,-3.51368 0.18945,-7.36132 z m -7.98242,10.44531 a 2,2 0 0 0 -1.51758,0.19922 L 1.0001828,43.57031 A 2,2 0 0 0 0.26776282,46.30078 2,2 0 0 0 3.0001828,47.0332 L 19.500183,37.50781 a 2,2 0 0 0 0.73242,-2.73242 2,2 0 0 0 -1.21484,-0.93164 z m 15.96484,0 a 2,2 0 0 0 -1.21484,0.93164 2,2 0 0 0 0.73242,2.73242 l 16.5,9.52539 a 2,2 0 0 0 2.73242,-0.73242 2,2 0 0 0 -0.73242,-2.73047 l -16.5,-9.52734 a 2,2 0 0 0 -1.51758,-0.19922 z M 27.000183,0 a 2,2 0 0 0 -2,2 v 19.05273 a 2,2 0 0 0 2,2 2,2 0 0 0 2,-2 V 2 a 2,2 0 0 0 -2,-2 z m -0.51758,0.0684 a 2,2 0 0 0 -0.21289,0.16406 2,2 0 0 0 -0.26953,0.0352 2,2 0 0 0 -0.0566,0.21484 2,2 0 0 0 -0.67578,0.51758 L 0.26780282,44.30281 a 2.0002,2.0002 0 0 0 1.73241998,3 H 52.000223 a 2.0002,2.0002 0 0 0 1.73242,-3 l -25,-43.30273 a 2,2 0 0 0 -0.0625,-0.0488 2,2 0 0 0 -0.66992,-0.68359 2,2 0 0 0 -0.26953,-0.0352 2,2 0 0 0 -0.73047,-0.0957 2,2 0 0 0 -0.51758,-0.0684 z m 0.51758,5.93164 21.53516,37.30273 H 5.4650228 Z" />
</svg>
